<svg width="33" height="33" viewBox="0 0 33 33" fill="none" xmlns="http://www.w3.org/2000/svg">
<path fill-rule="evenodd" clip-rule="evenodd" d="M15.7609 4.60889C12.5017 4.60889 12.0937 4.62249 10.8137 4.68089C9.53606 4.73929 8.66326 4.94249 7.90006 5.23929C7.10006 5.54009 6.37446 6.01209 5.77446 6.62329C5.16424 7.22259 4.69195 7.94768 4.39046 8.74809C4.09526 9.51129 3.89126 10.3849 3.83286 11.6625C3.77526 12.9417 3.76086 13.3489 3.76086 16.6089C3.76086 19.8689 3.77446 20.2761 3.83286 21.5561C3.89126 22.8337 4.09446 23.7065 4.39126 24.4697C4.69206 25.2697 5.16406 25.9953 5.77526 26.5953C6.37459 27.2055 7.09967 27.6778 7.90006 27.9793C8.66326 28.2753 9.53606 28.4785 10.8137 28.5369C12.0937 28.5953 12.5017 28.6089 15.7609 28.6089C19.0201 28.6089 19.4281 28.5953 20.7081 28.5369C21.9857 28.4785 22.8585 28.2753 23.6217 27.9785C24.4217 27.6777 25.1473 27.2057 25.7473 26.5945C26.3575 25.9952 26.8298 25.2701 27.1313 24.4697C27.4273 23.7065 27.6305 22.8337 27.6889 21.5561C27.7473 20.2761 27.7609 19.8681 27.7609 16.6089C27.7609 13.3497 27.7473 12.9417 27.6889 11.6617C27.6305 10.3841 27.4273 9.51129 27.1305 8.74809C26.8292 7.94734 26.3569 7.22194 25.7465 6.62249C25.1472 6.01226 24.4221 5.53997 23.6217 5.23849C22.8585 4.94329 21.9849 4.73929 20.7073 4.68089C19.4281 4.62329 19.0209 4.60889 15.7609 4.60889ZM15.7609 6.77129C18.9649 6.77129 19.3449 6.78329 20.6105 6.84089C21.7801 6.89449 22.4153 7.08889 22.8385 7.25449C23.3985 7.47129 23.7985 7.73209 24.2185 8.15129C24.6385 8.57129 24.8985 8.97129 25.1153 9.53129C25.2801 9.95449 25.4753 10.5897 25.5289 11.7593C25.5865 13.0249 25.5985 13.4049 25.5985 16.6089C25.5985 19.8129 25.5865 20.1929 25.5289 21.4585C25.4753 22.6281 25.2809 23.2633 25.1153 23.6865C24.9232 24.2077 24.6168 24.6793 24.2185 25.0665C23.8313 25.4649 23.3597 25.7713 22.8385 25.9633C22.4153 26.1281 21.7801 26.3233 20.6105 26.3769C19.3449 26.4345 18.9657 26.4465 15.7609 26.4465C12.5561 26.4465 12.1769 26.4345 10.9113 26.3769C9.74166 26.3233 9.10646 26.1289 8.68326 25.9633C8.16203 25.7712 7.69047 25.4648 7.30326 25.0665C6.90501 24.6792 6.59857 24.2077 6.40646 23.6865C6.24166 23.2633 6.04646 22.6281 5.99286 21.4585C5.93526 20.1929 5.92326 19.8129 5.92326 16.6089C5.92326 13.4049 5.93526 13.0249 5.99286 11.7593C6.04646 10.5897 6.24086 9.95449 6.40646 9.53129C6.62326 8.97129 6.88406 8.57129 7.30326 8.15129C7.69042 7.75292 8.16199 7.44647 8.68326 7.25449C9.10646 7.08969 9.74166 6.89449 10.9113 6.84089C12.1769 6.78329 12.5569 6.77129 15.7609 6.77129Z" fill="white"/>
<path fill-rule="evenodd" clip-rule="evenodd" d="M16.0976 19.8121C15.677 19.8121 15.2604 19.7292 14.8718 19.5682C14.4832 19.4073 14.13 19.1713 13.8326 18.8739C13.5352 18.5764 13.2992 18.2233 13.1382 17.8347C12.9773 17.446 12.8944 17.0295 12.8944 16.6089C12.8944 16.1882 12.9773 15.7717 13.1382 15.383C13.2992 14.9944 13.5352 14.6413 13.8326 14.3439C14.13 14.0464 14.4832 13.8105 14.8718 13.6495C15.2604 13.4885 15.677 13.4057 16.0976 13.4057C16.9471 13.4057 17.7619 13.7431 18.3626 14.3439C18.9633 14.9446 19.3008 15.7593 19.3008 16.6089C19.3008 17.4584 18.9633 18.2731 18.3626 18.8739C17.7619 19.4746 16.9471 19.8121 16.0976 19.8121ZM16.0976 11.6745C14.7889 11.6745 13.5338 12.1943 12.6085 13.1197C11.6831 14.0451 11.1632 15.3002 11.1632 16.6089C11.1632 17.9175 11.6831 19.1726 12.6085 20.098C13.5338 21.0234 14.7889 21.5433 16.0976 21.5433C17.4063 21.5433 18.6614 21.0234 19.5868 20.098C20.5121 19.1726 21.032 17.9175 21.032 16.6089C21.032 15.3002 20.5121 14.0451 19.5868 13.1197C18.6614 12.1943 17.4063 11.6745 16.0976 11.6745ZM22.4675 11.5849C22.4675 11.8942 22.3446 12.1909 22.1259 12.4096C21.9072 12.6284 21.6105 12.7513 21.3011 12.7513C20.9918 12.7513 20.6951 12.6284 20.4764 12.4096C20.2576 12.1909 20.1347 11.8942 20.1347 11.5849C20.1347 11.2755 20.2576 10.9788 20.4764 10.7601C20.6951 10.5413 20.9918 10.4185 21.3011 10.4185C21.6105 10.4185 21.9072 10.5413 22.1259 10.7601C22.3446 10.9788 22.4675 11.2755 22.4675 11.5849Z" fill="white"/>
</svg>
