<svg width="33" height="33" viewBox="0 0 33 33" fill="none" xmlns="http://www.w3.org/2000/svg">
<path fill-rule="evenodd" clip-rule="evenodd" d="M26.607 8.15284C27.7114 8.44954 28.585 9.32318 28.8817 10.4276C29.4257 12.4386 29.4422 16.6089 29.4422 16.6089C29.4422 16.6089 29.4422 20.7957 28.8982 22.7902C28.6015 23.8946 27.7279 24.7682 26.6235 25.0649C24.629 25.6089 16.6015 25.6089 16.6015 25.6089C16.6015 25.6089 8.57405 25.6089 6.57955 25.0649C5.47515 24.7682 4.60152 23.8946 4.30482 22.7902C3.76086 20.7792 3.76086 16.6089 3.76086 16.6089C3.76086 16.6089 3.76086 12.4386 4.28834 10.4441C4.58504 9.33966 5.45867 8.46603 6.56306 8.16933C8.55757 7.62537 16.585 7.60889 16.585 7.60889C16.585 7.60889 24.6125 7.60889 26.607 8.15284ZM20.6894 16.6089L14.0301 20.466V12.7517L20.6894 16.6089Z" fill="white"/>
</svg>
