<svg width="33" height="33" viewBox="0 0 33 33" fill="none" xmlns="http://www.w3.org/2000/svg">
<path d="M11.3777 28.5864C9.88227 28.5864 8.38088 28.6362 6.88422 28.5804C5.11448 28.5092 3.76086 27.0188 3.76086 25.2412C3.76086 19.5049 3.7715 13.7674 3.76086 8.02516C3.76086 6.06125 5.28944 4.69184 7.04855 4.642C8.88923 4.59216 10.7358 4.63132 12.5824 4.63132C12.6155 4.63132 12.6592 4.61471 12.6758 4.6693C12.6652 4.76779 12.5659 4.77966 12.5056 4.81763C11.4215 5.45724 10.4296 6.22144 9.59618 7.1684C8.22129 8.73004 7.26726 10.5231 6.94452 12.608C6.3747 16.2879 7.52025 19.4123 10.1116 22.0194C10.5715 22.4869 10.6318 22.8501 10.2653 23.4766C9.82198 24.2302 9.14695 24.7416 8.42935 25.2091C8.35251 25.253 8.27567 25.3076 8.19883 25.3575C8.08415 25.456 8.15508 25.5058 8.25321 25.5497C8.27567 25.5996 8.30286 25.6435 8.33596 25.6874C8.96607 26.2487 9.56308 26.8479 10.1825 27.4199C10.4734 27.6893 10.763 27.9705 11.0432 28.2505C11.1579 28.355 11.3506 28.3882 11.3777 28.5864Z" fill="white"/>
<path d="M11.3778 28.5864C11.3506 28.3941 11.1591 28.3609 11.0433 28.2458C10.7643 27.9598 10.4735 27.6845 10.1826 27.4151C9.56317 26.8432 8.96616 26.2439 8.33605 25.6826C8.30295 25.6387 8.27576 25.5948 8.2533 25.545C9.65065 25.8203 11.0149 25.6328 12.3579 25.221C12.813 25.0834 13.267 24.9457 13.728 24.8306C14.0401 24.7475 14.3688 24.7641 14.6703 24.8745C18.1447 26.073 21.5743 25.9639 24.9494 24.4782C26.3243 23.8682 27.5798 23.0091 28.6426 21.9375C28.697 21.8829 28.736 21.7999 28.8341 21.7939C28.8838 21.8711 28.8566 21.953 28.8566 22.036V25.2542C28.8672 27.0912 27.3989 28.5876 25.5689 28.6042H25.5417C23.5686 28.6149 21.5967 28.6042 19.6236 28.6042H11.7065C11.5965 28.5911 11.4878 28.5864 11.3778 28.5864Z" fill="white"/>
<path d="M12.2333 16.276C13.0608 16.276 13.8387 16.2701 14.6118 16.276C15.0445 16.282 15.2798 16.4635 15.3247 16.81C15.3743 17.2443 15.1225 17.5363 14.6508 17.541C13.763 17.5517 12.8811 17.5469 11.9933 17.5469C11.7355 17.5469 11.4837 17.5576 11.226 17.541C10.908 17.5244 10.5959 17.4579 10.4422 17.128C10.2885 16.7981 10.3985 16.5015 10.6066 16.2309C11.4506 15.1534 12.2995 14.0688 13.1495 12.9914C13.1991 12.9249 13.2476 12.8596 13.2972 12.7991C13.2428 12.7054 13.166 12.7493 13.0998 12.7445C12.5075 12.7386 11.9105 12.7445 11.3194 12.7386C11.1823 12.7386 11.0451 12.722 10.9139 12.6947C10.6018 12.6235 10.4103 12.3102 10.4812 12.0017C10.5309 11.7928 10.6952 11.622 10.9033 11.5721C11.0345 11.5389 11.1716 11.5223 11.3088 11.5223C12.2841 11.5163 13.2653 11.5163 14.2406 11.5223C14.4156 11.5163 14.5858 11.5389 14.7561 11.5828C15.1284 11.7098 15.288 12.0563 15.1391 12.4194C15.0079 12.7327 14.7998 13.002 14.5905 13.2714C13.873 14.1899 13.1554 15.1024 12.4366 16.0102C12.3751 16.0838 12.3207 16.155 12.2333 16.276Z" fill="white"/>
<path d="M18.5888 13.3828C18.72 13.2119 18.8572 13.0529 19.0818 13.009C19.5145 12.9212 19.92 13.2012 19.9259 13.6415C19.9424 14.7415 19.9365 15.8416 19.9259 16.9416C19.9259 17.2276 19.7391 17.4803 19.4707 17.5634C19.1965 17.6678 18.8844 17.5859 18.7035 17.3486C18.6101 17.2335 18.5723 17.211 18.441 17.3154C17.9422 17.7224 17.3783 17.7936 16.7694 17.5954C15.7941 17.2762 15.3945 16.512 15.2846 15.5829C15.1699 14.5766 15.5033 13.7186 16.4029 13.1906C17.1477 12.7456 17.9031 12.7835 18.5888 13.3828ZM16.6488 15.3906C16.6595 15.6327 16.7363 15.8641 16.8794 16.0563C17.1749 16.4527 17.74 16.5346 18.1396 16.2379C18.2058 16.1881 18.2661 16.1275 18.3205 16.0563C18.6278 15.6386 18.6278 14.9504 18.3205 14.5327C18.1668 14.3179 17.9256 14.1921 17.6679 14.1862C17.065 14.1482 16.6429 14.6157 16.6488 15.3906ZM22.386 15.4239C22.3423 14.0105 23.268 12.9544 24.5837 12.9153C25.9811 12.8714 27.0001 13.8124 27.0439 15.1865C27.0876 16.5785 26.2388 17.5622 24.9289 17.6951C23.4985 17.8387 22.3636 16.7992 22.386 15.4239ZM23.7609 15.2921C23.7503 15.5674 23.8319 15.8368 23.9962 16.0623C24.2976 16.4586 24.8615 16.5358 25.2564 16.2272C25.3167 16.1833 25.3663 16.1287 25.4148 16.073C25.7328 15.6553 25.7328 14.9504 25.4207 14.5327C25.267 14.3238 25.0259 14.1921 24.7682 14.1862C24.1782 14.1529 23.7609 14.6039 23.7609 15.2921ZM21.9037 14.3298C21.9037 15.1818 21.9096 16.035 21.9037 16.887C21.9096 17.2774 21.6022 17.6026 21.2133 17.6132C21.1471 17.6132 21.0762 17.6073 21.01 17.5907C20.7357 17.5195 20.5276 17.2276 20.5276 16.8811V12.5082C20.5276 12.2495 20.5217 11.9968 20.5276 11.7381C20.5335 11.3145 20.8019 11.0392 21.2074 11.0392C21.6235 11.0332 21.9037 11.3085 21.9037 11.7488C21.9096 12.6079 21.9037 13.4718 21.9037 14.3298Z" fill="white"/>
</svg>
